Coordinates
version=1
nRows=13
nColumns=40
inDegrees=yes

Units are S.I. units (second, meters, Newtons, ...)
Angles are in degrees.

endheader
time	pelvis_tilt	pelvis_list	pelvis_rotation	pelvis_tx	pelvis_ty	pelvis_tz	hip_flexion_r	hip_adduction_r	hip_rotation_r	knee_angle_r	knee_angle_r_beta	ankle_angle_r	subtalar_angle_r	mtp_angle_r	hip_flexion_l	hip_adduction_l	hip_rotation_l	knee_angle_l	knee_angle_l_beta	ankle_angle_l	subtalar_angle_l	mtp_angle_l	lumbar_extension	lumbar_bending	lumbar_rotation	arm_flex_r	arm_add_r	arm_rot_r	elbow_flex_r	pro_sup_r	wrist_flex_r	wrist_dev_r	arm_flex_l	arm_add_l	arm_rot_l	elbow_flex_l	pro_sup_l	wrist_flex_l	wrist_dev_l
     17.47000000	     -5.62160247	     -3.96418982	     -0.07624967	      0.99479530	      0.93218815	      0.42279691	     32.86019166	     -7.63372680	     -6.65955309	     70.12476610	     70.12476610	      0.10713066	    -14.58489595	      0.15718116	     16.44674124	     -4.04264338	     -9.31909805	     21.03352989	     21.03352989	     12.87129018	     -6.82429769	      0.59249698	    -11.18016453	      5.04150705	      2.57429928	      6.47915684	    -14.07086664	     -7.56612514	     75.93079770	     44.71432878	      0.00000000	      0.00000000	     12.79978794	    -14.97226185	      6.68064071	     46.38036147	     45.55179622	      0.00000000	      0.00000000
     17.48171429	     -5.58744002	     -3.97110685	     -0.15273356	      0.99362160	      0.93283235	      0.42234611	     34.06823112	     -7.57976010	     -6.73148126	     68.72895781	     68.72895781	      0.22182861	    -14.38986273	      0.04017237	     15.44919201	     -4.02457121	     -9.71500925	     20.27712755	     20.27712755	     13.14598403	     -6.13771565	      0.37575802	    -11.38599092	      5.08047927	      3.12093019	      4.43185991	    -14.50233579	     -7.53482357	     71.92927799	     44.84935669	      0.00000000	      0.00000000	     15.06656605	    -14.99135321	      6.68425600	     47.74008909	     45.60837273	      0.00000000	      0.00000000
     17.49342857	     -5.60620830	     -4.02098506	     -0.16335384	      0.99250011	      0.93333522	      0.42197336	     35.13171569	     -7.47938441	     -6.90796852	     67.04559677	     67.04559677	      0.15132258	    -14.31305902	     -0.29817529	     14.56838643	     -4.08384757	    -10.17588659	     19.60486783	     19.60486783	     13.32854301	     -5.20530094	     -0.33436800	    -11.37122580	      5.09328252	      2.65382739	      4.39164711	    -13.85084115	     -7.96135650	     64.13285234	     45.15048917	      0.00000000	      0.00000000	     16.74239328	    -15.79684533	      7.65771790	     48.94935331	     45.61526679	      0.00000000	      0.00000000
     17.50514286	     -5.53039208	     -3.99960288	     -0.25043499	      0.99148315	      0.93383940	      0.42158787	     35.98247838	     -7.39715392	     -6.97069932	     65.17042462	     65.17042462	      0.21996655	    -14.10907044	     -0.14816764	     13.51778879	     -4.01343419	    -10.52977211	     18.81861794	     18.81861794	     13.56565056	     -4.59132633	     -0.54002917	    -11.62284964	      5.07889914	      3.24610988	      2.61518619	    -14.25242041	     -7.85109281	     60.09184617	     45.28386705	      0.00000000	      0.00000000	     18.85377873	    -15.76289880	      7.69373764	     50.62115219	     45.67249023	      0.00000000	      0.00000000
     17.51685714	     -5.46588734	     -3.99228782	     -0.31263807	      0.99063255	      0.93423284	      0.42126919	     36.65849628	     -7.28156780	     -7.06477396	     63.00819574	     63.00819574	      0.26932753	    -13.95917642	      0.14573206	     12.47968129	     -3.97414456	    -10.96480939	     18.03498772	     18.03498772	     13.79218233	     -3.78933326	     -0.92175824	    -11.80020274	      5.09083176	      3.61390366	      1.52705268	    -14.30714979	     -7.98216424	     54.65495459	     45.47967959	      0.00000000	      0.00000000	     20.80212412	    -15.88059460	      8.02205526	     52.17273101	     45.70399679	      0.00000000	      0.00000000
     17.52857143	     -5.42152747	     -3.95809184	     -0.35793454	      0.98980812	      0.93440272	      0.42104684	     37.21043432	     -7.16927839	     -7.15650720	     60.58585750	     60.58585750	      0.36019290	    -13.82587329	      0.50907667	     11.51040086	     -3.91449204	    -11.39024872	     17.31868854	     17.31868854	     13.99085912	     -2.99288066	     -1.40323446	    -11.93367874	      5.06975981	      3.68007360	      0.98537704	    -14.12354653	     -8.34624303	     48.58497043	     45.71322648	      0.00000000	      0.00000000	     22.48084950	    -16.25705788	      8.49749263	     53.76106483	     45.72592989	      0.00000000	      0.00000000
     17.54028571	     -5.52930302	     -3.88067683	     -0.32520637	      0.98896521	      0.93411522	      0.42086914	     37.78770126	     -7.14903148	     -7.34821194	     57.91428198	     57.91428198	      0.41667089	    -13.66308604	      0.80387946	     10.85636018	     -3.82292392	    -11.72526815	     16.84231935	     16.84231935	     14.07553494	     -2.36231063	     -2.25830592	    -11.75953186	      5.00169331	      2.42490026	      2.41348282	    -13.17370065	     -9.77873966	     39.55290484	     46.12051696	      0.00000000	      0.00000000	     23.23549899	    -17.84874326	      9.32753833	     55.81431042	     45.77109754	      0.00000000	      0.00000000
     17.55200000	     -5.53421782	     -3.76692197	     -0.34173068	      0.98835546	      0.93386454	      0.42075629	     38.04635989	     -7.09562587	     -7.49611229	     54.86869731	     54.86869731	      0.42850982	    -13.52020475	      0.85843516	      9.98185960	     -3.65480314	    -11.98981059	     16.20083415	     16.20083415	     14.27649511	     -1.79611798	     -2.73503021	    -11.83990572	      4.92428978	      2.25050520	      1.84081261	    -12.95478621	    -11.31354562	     34.59562964	     46.37977661	      0.00000000	      0.00000000	     24.27273022	    -18.38746161	      9.05458349	     58.27487395	     45.94009898	      0.00000000	      0.00000000
     17.56371429	     -5.54597809	     -3.65374092	     -0.33840782	      0.98786906	      0.93346019	      0.42068882	     38.12649495	     -7.02509553	     -7.71190512	     51.51729960	     51.51729960	      0.56830415	    -13.20110783	      1.18847689	      9.12485922	     -3.47190051	    -12.16008885	     15.59170556	     15.59170556	     14.58174983	     -1.33972068	     -2.87665955	    -11.92405682	      4.90166120	      2.51872039	     -0.13584319	    -13.21213804	    -11.56849381	     32.75147795	     46.45314607	      0.00000000	      0.00000000	     25.77531904	    -18.38308393	      8.79353570	     59.80968293	     46.00973541	      0.00000000	      0.00000000
     17.57542857	     -5.56640481	     -3.50576037	     -0.33576095	      0.98751211	      0.93284738	      0.42073954	     38.03602898	     -6.97123356	     -8.00499110	     47.87912246	     47.87912246	      0.70131038	    -12.72121140	      1.40216352	      8.28772763	     -3.28112998	    -12.42048402	     15.02696375	     15.02696375	     14.88864428	     -0.74605465	     -3.15772141	    -11.98088462	      4.80034505	      2.78553621	     -1.93966129	    -13.39432721	    -11.98760975	     30.47953621	     46.55930385	      0.00000000	      0.00000000	     27.12734993	    -18.44555189	      8.71561940	     61.65708791	     46.06976732	      0.00000000	      0.00000000
     17.58714286	     -5.63652875	     -3.33091491	     -0.29183496	      0.98728445	      0.93194295	      0.42095192	     37.77708757	     -6.90620589	     -8.38841680	     43.89995648	     43.89995648	      0.39607959	    -12.28603112	      0.39107406	      7.56742674	     -3.12039671	    -12.86194796	     14.59724275	     14.59724275	     15.12279566	      0.11372317	     -3.99708280	    -11.91973961	      4.63650049	      2.17314480	     -1.93314791	    -13.05619055	    -14.77742902	     25.26743639	     46.98256121	      0.00000000	      0.00000000	     27.48461455	    -19.77579495	      9.18609584	     65.15669956	     46.19422305	      0.00000000	      0.00000000
     17.59885714	     -5.69817637	     -3.16623002	     -0.22550134	      0.98721582	      0.93099140	      0.42111350	     37.34097387	     -6.82348229	     -8.91610680	     39.77777996	     39.77777996	      0.56657628	    -11.28107861	      0.83329120	      6.79604328	     -2.89323049	    -12.90557573	     14.09824736	     14.09824736	     15.47203216	      0.46919183	     -4.12662387	    -11.87580610	      4.55679816	      2.34509586	     -3.98377147	    -13.27363698	    -15.16476345	     24.19424226	     47.04358654	      0.00000000	      0.00000000	     28.62912162	    -19.68897940	      8.79233755	     66.62284635	     46.26797666	      0.00000000	      0.00000000
     17.61057143	     -5.74773755	     -2.98430625	     -0.15484107	      0.98739377	      0.92985871	      0.42144703	     36.71663061	     -6.69838530	     -9.52672631	     35.53645280	     35.53645280	      0.71037245	     -9.96796098	      1.32336981	      6.00292766	     -2.67084194	    -13.01567003	     13.61644493	     13.61644493	     15.86617721	      0.92949255	     -4.36214056	    -11.79846629	      4.42553320	      2.50166292	     -5.97039894	    -13.39737893	    -15.57127706	     23.17754988	     47.10658692	      0.00000000	      0.00000000	     29.64108532	    -19.71420758	      8.51902620	     68.42025442	     46.33641553	      0.00000000	      0.00000000
